<?xml version="1.0" encoding="UTF-8" standalone="no"?>
<!-- Created with Inkscape (http://www.inkscape.org/) -->

<svg
   width="73.467003mm"
   height="73.467003mm"
   viewBox="0 0 73.467003 73.467003"
   version="1.1"
   id="svg1"
   inkscape:version="1.4 (86a8ad7, 2024-10-11)"
   sodipodi:docname="deezer.svg"
   xmlns:inkscape="http://www.inkscape.org/namespaces/inkscape"
   xmlns:sodipodi="http://sodipodi.sourceforge.net/DTD/sodipodi-0.dtd"
   xmlns="http://www.w3.org/2000/svg"
   xmlns:svg="http://www.w3.org/2000/svg">
  <sodipodi:namedview
     id="namedview1"
     pagecolor="#505050"
     bordercolor="#eeeeee"
     borderopacity="1"
     inkscape:showpageshadow="0"
     inkscape:pageopacity="0"
     inkscape:pagecheckerboard="0"
     inkscape:deskcolor="#505050"
     inkscape:document-units="mm"
     inkscape:zoom="2.8284271"
     inkscape:cx="178.89802"
     inkscape:cy="157.50803"
     inkscape:window-width="2560"
     inkscape:window-height="1369"
     inkscape:window-x="-8"
     inkscape:window-y="-8"
     inkscape:window-maximized="1"
     inkscape:current-layer="layer1" />
  <defs
     id="defs1" />
  <g
     inkscape:label="Calque 1"
     inkscape:groupmode="layer"
     id="layer1">
    <path
       fill-rule="evenodd"
       clip-rule="evenodd"
       d="m 61.616402,11.20847 c 0.679715,-3.9396504 1.677194,-6.41702 2.782094,-6.42173 h 0.0021 c 2.06031,0.007 3.73036,8.59858 3.73036,19.20605 0,10.60757 -1.672431,19.206 -3.734858,19.206 -0.845608,0 -1.625865,-1.45998 -2.253985,-3.90658 -0.992717,8.95615 -3.052763,15.11274 -5.437717,15.11274 -1.845204,0 -3.501231,-3.69835 -4.61301,-9.53082 -0.75909,11.09239 -2.669646,18.96242 -4.90273,18.96242 -1.401497,0 -2.67917,-3.11864 -3.625056,-8.19653 -1.137443,10.482 -3.765285,17.82657 -6.829689,17.82657 -3.064404,0 -5.697008,-7.34219 -6.82969,-17.82657 -0.939006,5.07789 -2.216679,8.19653 -3.625109,8.19653 -2.232977,0 -4.13893,-7.87003 -4.902729,-18.96242 -1.111806,5.83247 -2.763176,9.53082 -4.61309,9.53082 -2.382441,0 -4.444894,-6.15447 -5.437585,-15.11274 -0.623649,2.45375 -1.408457,3.90658 -2.2539857,3.90658 -2.0624536,0 -3.7348583,-8.59843 -3.7348583,-19.206 0,-10.60747 1.6724047,-19.20605 3.7348583,-19.20605 1.1071227,0 2.0974847,2.4844396 2.7841847,6.42173 C 12.956044,4.41524 14.742881,0 16.763293,0 c 2.398819,0 4.477623,6.24427 5.460974,15.31139 0.962316,-6.5992204 2.422154,-10.80625 4.057173,-10.80625 2.291398,0 4.23926,8.27445 4.961044,19.81655 1.357048,-5.91775 3.321579,-9.63025 5.496189,-9.63025 2.174346,0 4.138877,3.71486 5.493544,9.63025 0.724165,-11.5421 2.669646,-19.81655 4.961202,-19.81655 1.632479,0 3.090069,4.2070296 4.057121,10.80625 C 52.231615,6.24427 54.310446,0 56.709158,0 c 2.01348,0 3.80709,4.41762 4.907227,11.20847 z M 0,22.10377 c 0,-4.74178 0.94831144,-8.58676 2.1185158,-8.58676 1.1701992,0 2.1185187,3.84498 2.1185187,8.58676 0,4.74165 -0.9483195,8.58684 -2.1185187,8.58684 C 0.94831144,30.69061 0,26.84542 0,22.10377 Z m 69.229259,0 c 0,-4.74178 0.948266,-8.58676 2.118518,-8.58676 1.169988,0 2.118519,3.84498 2.118519,8.58676 0,4.74165 -0.948531,8.58684 -2.118519,8.58684 -1.170252,0 -2.118518,-3.84519 -2.118518,-8.58684 z"
       fill="#a238ff"
       id="path2"
       style="stroke-width:0.264583;fill:#000000" />
  </g>
</svg>
